<svg version="1.1" xmlns="http://www.w3.org/2000/svg" viewBox="0 0 32 32">
  <path fill="#191717" d="M16,0.395c-8.835,0-16,7.164-16,16.001 c0,7.069,4.584,13.066,10.943,15.182c0.8,0.146,1.092-0.348,1.092-0.771c0-0.38-0.014-1.387-0.021-2.723 c-4.451,0.968-5.39-2.145-5.39-2.145c-0.728-1.848-1.776-2.341-1.776-2.341c-1.453-0.991,0.11-0.973,0.11-0.973 c1.605,0.113,2.451,1.65,2.451,1.65c1.427,2.444,3.745,1.738,4.657,1.329c0.145-1.034,0.559-1.74,1.016-2.139 c-3.553-0.405-7.288-1.776-7.288-7.908c0-1.747,0.624-3.175,1.647-4.293c-0.165-0.405-0.714-2.032,0.157-4.234 c0,0,1.343-0.43,4.4,1.64c1.276-0.355,2.645-0.532,4.006-0.539c1.359,0.006,2.727,0.184,4.006,0.539 c3.054-2.07,4.396-1.64,4.396-1.64c0.872,2.203,0.324,3.83,0.159,4.234c1.024,1.119,1.644,2.547,1.644,4.293 c0,6.146-3.741,7.499-7.306,7.894c0.576,0.495,1.086,1.472,1.086,2.964c0,2.14-0.019,3.864-0.019,4.39 c0,0.428,0.287,0.925,1.101,0.77C27.421,29.456,32,23.463,32,16.396C32,7.559,24.837,0.395,16,0.395z"/>
</svg>
